<?xml version="1.0" encoding="utf-8"?>
<!-- Generator: Adobe Illustrator 25.4.2, SVG Export Plug-In . SVG Version: 6.00 Build 0)  -->
<svg version="1.1" id="Layer_1" xmlns="http://www.w3.org/2000/svg" xmlns:xlink="http://www.w3.org/1999/xlink" x="0px" y="0px"
	 viewBox="0 0 288 72" style="enable-background:new 0 0 288 72;" xml:space="preserve">
<path d="M132,34.93c8.35-2.77,9.87-9.79,9.85-15.5c-0.02-8.73-6.18-16.28-24.41-16.28l-34.03,0v65.58h33.95
	c18.34,0,25.09-9.42,25.09-18.85C142.45,38.45,132,34.93,132,34.93 M99.56,17.41h22.83h0.09l0.09,0.02
	c2.58,0.46,4.47,2.66,4.47,5.24c0,2.64-2.02,5.13-4.68,5.49l-22.76,0.04L99.56,17.41z M121.37,53.44H99.56V42.46h22.29h0.06
	l0.05,0.01c2.78,0.32,4.89,2.63,4.89,5.38C126.85,50.84,124.35,53.4,121.37,53.44"/>
<polygon points="218.66,3.15 276.17,3.15 276.14,17.47 234.64,17.47 234.68,28.03 272.09,28.03 272.09,42.42 234.68,42.42 
	234.68,53.86 276.19,53.86 276.18,68.86 218.66,68.86 "/>
<path d="M185.2,3.23h-34.78v65.6h15.97V42.3l17.59-0.02c5.04,0.07,8.95,4.2,8.95,9.29v17.22l15.63-0.01l-0.03-21.17
	c0-9.81-9.48-12.71-9.48-12.71s9.68-2.9,9.68-14.49C208.75,6.21,196.57,3.23,185.2,3.23 M193.92,23.59c-0.29,2.16-2.44,4.5-5.14,4.5
	l-22.45,0.01v-10.5h22.46c2.68,0,4.78,1.97,5.12,4.57V23.59z"/>
<path d="M73.05,52.99c-0.23,0-21.83,0.42-29.29-0.31C31.75,51.5,27.5,42.61,27.5,35.35c0-9.06,6.17-15.72,15.73-16.97
	c4.55-0.6,29.43-0.31,29.69-0.31l0.52,0l0.05-14.92h-0.52L44.82,3.21c-3.14,0.19-8.33,0.5-13.66,2.68
	c-5.11,2.35-9.56,5.94-12.88,10.42c-4.23,5.7-6.47,12.46-6.47,19.56c0,2.23,0.18,4.44,0.54,6.57c2.03,9.94,8.55,18.18,17.9,22.6
	c3.16,1.39,8.02,3.06,17.84,3.61c0.02,0,5.29,0.11,5.29,0.11c0,0,19.63,0.02,19.63,0.02h0.52l0.06-15.79L73.05,52.99z"/>
</svg>
