<?xml version="1.0" encoding="utf-8"?>
<!-- Generator: Adobe Illustrator 25.4.2, SVG Export Plug-In . SVG Version: 6.00 Build 0)  -->
<svg version="1.1" id="Layer_133_xA0_Image_00000002372343816726868890000012511421541898556306_"
	 xmlns="http://www.w3.org/2000/svg" xmlns:xlink="http://www.w3.org/1999/xlink" x="0px" y="0px" viewBox="0 0 288 72"
	 style="enable-background:new 0 0 288 72;" xml:space="preserve">
<path d="M160.82,34.91c0.32,0.11,0.61,0.2,0.9,0.3c3.4,1.2,5.17,3.6,5.15,6.99c-0.02,3.51-1.85,6.16-5.25,7.18
	c-1.7,0.51-3.52,0.81-5.29,0.86c-4.63,0.12-9.27,0.01-13.91,0.06c-1.05,0.01-1.37-0.3-1.36-1.36c0.04-8.91,0.03-17.83,0.01-26.75
	c0-0.81,0.15-1.28,1.1-1.27c4.91,0.07,9.83-0.02,14.74,0.2c1.65,0.07,3.41,0.64,4.88,1.42c3.86,2.03,4.62,7.77,1.52,10.68
	C162.61,33.89,161.7,34.33,160.82,34.91z M146.31,45.51c3.73,0,7.36,0.02,10.98-0.02c0.66-0.01,1.35-0.19,1.99-0.39
	c1.53-0.49,2.26-1.52,2.3-3.12c0.06-2.22-1.05-3.62-3.38-3.85c-2.22-0.21-4.46-0.16-6.69-0.2c-1.71-0.03-3.41-0.01-5.2-0.01
	C146.31,40.5,146.31,42.95,146.31,45.51z M146.29,33.3c2.98,0,5.81,0.02,8.65-0.01c0.75-0.01,1.52-0.11,2.25-0.28
	c1.91-0.46,2.86-1.73,2.8-3.62c-0.06-1.88-1.12-3.35-3.01-3.44c-3.53-0.17-7.07-0.05-10.68-0.05
	C146.29,28.24,146.29,30.7,146.29,33.3z"/>
<path d="M206.28,35.63c-0.03,9.25-6.17,15.24-15.6,15.21c-9.18-0.04-15.29-6.15-15.26-15.31c0.03-8.9,6.15-15.41,16.02-15.16
	C200.22,20.59,206.3,26.69,206.28,35.63z M190.81,45.87c6.19,0.03,10.01-3.83,10.03-10.15c0.03-6.4-3.73-10.34-9.94-10.41
	c-6.16-0.07-9.98,3.85-10.03,10.31C180.82,41.91,184.63,45.84,190.81,45.87z"/>
<path d="M230.7,20.41c6.51-0.02,11.7,3.44,13.88,9.71c2.2,6.34,0.28,13.79-4.57,17.58c-3.73,2.91-8.05,3.54-12.6,2.96
	c-6.05-0.77-10.13-4.03-12.08-9.84c-2.09-6.24-0.18-13.4,4.6-17.25C222.86,21.21,226.3,20.36,230.7,20.41z M230.16,45.87
	c1.78,0.06,3.69-0.29,5.41-1.35c3.82-2.36,5.41-7.7,3.83-12.81c-1.3-4.21-5.03-6.63-9.84-6.37c-5.05,0.27-8.26,2.72-9.21,7.33
	C218.9,39.64,222.19,46,230.16,45.87z"/>
<path d="M111.44,25.83c0,2.5,0,4.85,0,7.27c0.28,0.02,0.54,0.07,0.81,0.07c4,0,8,0.03,11.99-0.02c1.04-0.01,1.47,0.31,1.38,1.38
	c-0.07,0.79-0.04,1.6,0,2.4c0.04,0.83-0.28,1.11-1.13,1.1c-3.92-0.04-7.84-0.02-11.75-0.02c-0.39,0-0.78,0-1.26,0
	c0,2.48,0,4.85,0,7.32c0.32,0.02,0.62,0.07,0.92,0.07c5.12,0,10.23,0.03,15.35-0.02c1.11-0.01,1.53,0.34,1.43,1.45
	c-0.07,0.83-0.03,1.68-0.01,2.52c0.01,0.72-0.3,0.96-1.02,0.96c-6.96-0.02-13.91-0.03-20.87,0.01c-1.27,0.01-1.05-0.81-1.05-1.54
	c-0.01-7.76-0.01-15.51-0.01-23.27c0-1.12,0.03-2.24-0.01-3.36c-0.03-0.85,0.25-1.22,1.16-1.22c6.76,0.02,13.51,0.02,20.27,0
	c0.88,0,1.24,0.29,1.18,1.19c-0.05,0.84-0.06,1.68,0,2.52c0.07,0.98-0.38,1.22-1.28,1.22c-4.92-0.03-9.83-0.01-14.75-0.02
	C112.36,25.83,111.93,25.83,111.44,25.83z"/>
<path d="M59.32,50.27c-3.41-0.06-2.47,0.49-3.43-2.63c-0.44-1.41-0.86-2.83-1.25-4.25c-0.18-0.68-0.5-0.96-1.25-0.95
	c-4,0.03-8,0.03-11.99-0.01c-0.67-0.01-1.01,0.19-1.18,0.86c-0.52,1.97-1.14,3.91-1.64,5.89c-0.2,0.8-0.56,1.14-1.4,1.1
	c-1.08-0.06-2.16-0.05-3.24,0c-0.94,0.04-1.07-0.33-0.82-1.17c2.6-8.83,5.95-17.37,9.66-25.79c0.82-1.87,1.81-2.73,3.84-2.41
	c0.86,0.14,1.77,0.13,2.63,0c1.48-0.22,2.17,0.5,2.69,1.75c1.71,4.18,3.61,8.28,5.21,12.5c1.71,4.52,3.16,9.13,4.69,13.71
	c0.44,1.33,0.35,1.4-1.07,1.4C60.28,50.27,59.8,50.27,59.32,50.27z M52.53,37.69c-0.02-0.23,0.01-0.4-0.04-0.53
	c-1.46-3.63-2.92-7.26-4.41-10.87c-0.1-0.24-0.47-0.59-0.63-0.55c-0.29,0.08-0.61,0.36-0.73,0.64c-0.95,2.16-1.88,4.32-2.76,6.5
	c-0.63,1.56-1.19,3.15-1.82,4.81C45.73,37.69,49.11,37.69,52.53,37.69z"/>
<path d="M260.85,37.95c0,3.65-0.04,7.25,0.02,10.84c0.02,1.15-0.3,1.61-1.48,1.5c-0.83-0.08-1.68-0.06-2.52,0
	c-0.87,0.07-1.21-0.21-1.21-1.13c0.02-9.04,0.01-18.07-0.01-27.11c0-0.83,0.28-1.17,1.12-1.12c0.88,0.05,1.76,0.06,2.64,0
	c1.07-0.07,1.49,0.27,1.46,1.42c-0.07,3.04-0.02,6.08-0.02,9.12c0,0.4,0,0.79,0,1.24c1.27,0.25,2.34,0.31,3.3-0.75
	c3.1-3.39,6.29-6.7,9.38-10.1c0.6-0.66,1.17-0.98,2.05-0.95c1.54,0.05,3.07,0.02,4.68,0.21c-3.83,5.24-8.26,9.79-13.09,14.05
	c5.28,4.57,10.21,9.38,14.88,15c-0.92,0.05-1.49,0.02-2.04,0.11c-3.17,0.53-5.39-0.61-7.45-3.16c-2.42-2.99-5.48-5.47-8.19-8.24
	C263.37,37.87,262.31,37.64,260.85,37.95z"/>
<path d="M83.79,20.4c4.93-0.01,8.91,1.83,11.73,6c0.55,0.82,0.56,1.31-0.43,1.72c-0.92,0.38-1.8,0.87-2.68,1.33
	c-0.59,0.31-1.02,0.27-1.39-0.35c-2.25-3.77-6.25-4.29-9.89-3.47c-3.5,0.79-5.96,3.85-6.52,7.76c-0.45,3.15-0.12,6.14,1.67,8.85
	c1.34,2.03,3.27,3.21,5.63,3.5c3.36,0.42,6.56,0.06,9.05-2.66c0.22-0.24,0.89-0.29,1.24-0.16c1,0.39,1.94,0.94,2.92,1.39
	c0.8,0.36,0.86,0.76,0.31,1.45c-2.6,3.25-6.08,4.72-10.11,5.01c-4.41,0.31-8.55-0.46-11.89-3.65c-4-3.82-4.93-8.64-4.28-13.88
	C70.13,25.43,75.92,20.41,83.79,20.4z"/>
<path d="M11.22,25.83c0,2.62,0,5.05,0,7.62c0.49,0,0.91,0,1.34,0c3.8,0,7.6,0.02,11.39-0.02c0.93-0.01,1.33,0.3,1.26,1.25
	c-0.06,0.76-0.06,1.52,0,2.28c0.08,1.03-0.29,1.4-1.37,1.38c-3.8-0.06-7.59-0.02-11.39-0.02c-0.39,0-0.78,0-1.29,0
	c0,2.71,0,5.3,0,7.88c0,1.04-0.02,2.08,0.01,3.12c0.02,0.72-0.28,1.01-1,0.98c-0.92-0.04-1.84-0.08-2.76,0
	c-1.09,0.09-1.46-0.27-1.45-1.4c0.05-6.04,0.02-12.07,0.02-18.11c0-2.84,0.03-5.68-0.02-8.51c-0.02-0.98,0.29-1.35,1.3-1.34
	c6.52,0.03,13.03,0.03,19.55,0c0.91,0,1.35,0.25,1.27,1.23c-0.06,0.79-0.06,1.6,0,2.4c0.08,1.01-0.34,1.31-1.32,1.3
	c-4.72-0.04-9.43-0.02-14.15-0.02C12.17,25.83,11.74,25.83,11.22,25.83z"/>
</svg>
