<?xml version="1.0" encoding="utf-8"?>
<!-- Generator: Adobe Illustrator 25.4.2, SVG Export Plug-In . SVG Version: 6.00 Build 0)  -->
<svg version="1.1"
	 id="svg2" inkscape:version="0.48.5 r10040" sodipodi:docname="Google_2015.svg" xmlns:cc="http://creativecommons.org/ns#" xmlns:dc="http://purl.org/dc/elements/1.1/" xmlns:inkscape="http://www.inkscape.org/namespaces/inkscape" xmlns:rdf="http://www.w3.org/1999/02/22-rdf-syntax-ns#" xmlns:sodipodi="http://sodipodi.sourceforge.net/DTD/sodipodi-0.dtd" xmlns:svg="http://www.w3.org/2000/svg"
	 xmlns="http://www.w3.org/2000/svg" xmlns:xlink="http://www.w3.org/1999/xlink" x="0px" y="0px" viewBox="0 0 1000 328.56"
	 style="enable-background:new 0 0 1000 328.56;" xml:space="preserve">
<sodipodi:namedview  bordercolor="#666666" borderopacity="1.0" fit-margin-bottom="0.5" fit-margin-left="0.5" fit-margin-right="0.5" fit-margin-top="0.5" id="base" inkscape:current-layer="layer1" inkscape:cx="698.4839" inkscape:cy="-270.28462" inkscape:document-units="px" inkscape:pageopacity="0.0" inkscape:pageshadow="2" inkscape:window-height="1025" inkscape:window-maximized="0" inkscape:window-width="1040" inkscape:window-x="874" inkscape:window-y="-9" inkscape:zoom="0.22966747" pagecolor="#ffffff" showgrid="false">
	
		<inkscape:grid  empspacing="5" enabled="true" id="grid2996" originx="-39.48794px" originy="-160.23718px" snapvisiblegridlinesonly="true" type="xygrid" visible="true">
		</inkscape:grid>
</sodipodi:namedview>
<g id="layer1" transform="translate(-39.48794,-563.5689)" inkscape:groupmode="layer" inkscape:label="Layer 1">
	<path id="path2998" inkscape:connector-curvature="0" sodipodi:nodetypes="cccccccccccccc" d="M285.59,679.75H169.02v34.59h82.67
		c-4.08,48.51-44.44,69.19-82.53,69.19c-48.74,0-91.26-38.35-91.26-92.09c0-52.36,40.54-92.68,91.37-92.68
		c39.22,0,62.33,25,62.33,25l24.22-25.08c0,0-31.09-34.61-87.78-34.61c-72.19,0-128.04,60.93-128.04,126.75
		c0,64.49,52.54,127.38,129.89,127.38c68.03,0,117.83-46.6,117.83-115.52C287.7,688.15,285.59,679.75,285.59,679.75L285.59,679.75z"
		/>
	<path id="path3000" inkscape:connector-curvature="0" d="M381.09,654.7c-47.83,0-82.11,37.39-82.11,81.01
		c0,44.26,33.25,82.35,82.67,82.35c44.74,0,81.4-34.2,81.4-81.4C463.05,682.56,420.41,654.7,381.09,654.7L381.09,654.7z
		 M381.56,686.78c23.52,0,45.81,19.02,45.81,49.66c0,29.99-22.2,49.55-45.92,49.55c-26.07,0-46.63-20.88-46.63-49.79
		C334.82,707.91,355.13,686.78,381.56,686.78L381.56,686.78z"/>
	<path id="path3005" inkscape:connector-curvature="0" d="M559.67,654.7c-47.83,0-82.11,37.39-82.11,81.01
		c0,44.26,33.25,82.35,82.67,82.35c44.74,0,81.4-34.2,81.4-81.4C641.63,682.56,598.99,654.7,559.67,654.7L559.67,654.7z
		 M560.15,686.78c23.52,0,45.81,19.02,45.81,49.66c0,29.99-22.2,49.55-45.92,49.55c-26.07,0-46.63-20.88-46.63-49.79
		C513.41,707.91,533.72,686.78,560.15,686.78L560.15,686.78z"/>
	<path id="path3007" inkscape:connector-curvature="0" d="M734.82,654.78c-43.9,0-78.41,38.45-78.41,81.61
		c0,49.16,40.01,81.76,77.66,81.76c23.28,0,35.66-9.24,44.8-19.85v16.11c0,28.18-17.11,45.05-42.94,45.05
		c-24.95,0-37.46-18.55-41.81-29.08l-31.39,13.12c11.14,23.55,33.55,48.1,73.46,48.1c43.65,0,76.92-27.5,76.92-85.16V659.69h-34.25
		v13.84C768.34,662.18,753.94,654.78,734.82,654.78z M738,686.8c21.53,0,43.63,18.38,43.63,49.77c0,31.9-22.06,49.49-44.1,49.49
		c-23.41,0-45.18-19.01-45.18-49.18C692.34,705.51,714.96,686.8,738,686.8L738,686.8z"/>
	<path id="path3011" inkscape:connector-curvature="0" d="M965.37,654.59c-41.41,0-76.19,32.95-76.19,81.57
		c0,51.45,38.76,81.96,80.16,81.96c34.56,0,55.77-18.91,68.43-35.85l-28.24-18.79c-7.33,11.37-19.58,22.48-40.02,22.48
		c-22.96,0-33.52-12.57-40.06-24.75l109.52-45.44l-5.69-13.32C1022.72,676.37,998.03,654.59,965.37,654.59L965.37,654.59z
		 M966.8,686c14.92,0,25.66,7.93,30.22,17.45l-73.14,30.57C920.73,710.35,943.15,686,966.8,686z"/>
	<path id="path3015" inkscape:connector-curvature="0" d="M836.98,813.27h35.97V572.51h-35.97V813.27z"/>
</g>
</svg>
