<?xml version="1.0" encoding="utf-8"?>
<!-- Generator: Adobe Illustrator 25.4.2, SVG Export Plug-In . SVG Version: 6.00 Build 0)  -->
<svg version="1.1" id="Layer_1" xmlns="http://www.w3.org/2000/svg" xmlns:xlink="http://www.w3.org/1999/xlink" x="0px" y="0px"
	 viewBox="0 0 288 72" style="enable-background:new 0 0 288 72;" xml:space="preserve">
<style type="text/css">
	.st0{fill:#F25022;}
	.st1{fill:#FEFEFE;}
	.st2{fill:#80BA01;}
	.st3{fill:#777777;}
	.st4{fill:#02A4EF;}
	.st5{fill:#FFB902;}
</style>
<g>
	<path class="st0" d="M5.45,6.45H33.5c0,9.35,0,18.7,0,28.05c-9.35,0-18.7,0-28.05,0V6.45L5.45,6.45z"/>
	<path class="st1" d="M33.5,6.45h2.86c0,9.35,0,18.7,0,28.05c9.35,0,18.7,0,28.04,0c0-9.35,0-18.7,0-28.05h217.13v21.81
		c-2,0.01-4-0.02-6,0.01c-0.05-2.53-0.01-5.06-0.02-7.59c-2,0.6-3.99,1.24-6,1.82c-0.05,1.92,0,3.84-0.03,5.76
		c-2.96,0-5.92,0-8.87,0c0.04-1.51-0.1-3.04,0.11-4.54c0.18-1.19,0.87-2.37,2.02-2.83c1.46-0.6,3.09-0.2,4.47,0.41
		c-0.01-1.73,0.01-3.47-0.01-5.2c-2.91-0.8-6.25-0.65-8.84,1.04c-1.67,1.07-2.88,2.78-3.42,4.67c-0.64,2.1-0.32,4.31-0.42,6.47
		c-1.4-0.01-2.8-0.02-4.2,0.01c0.02,1.62,0.01,3.24,0,4.86c1.41,0.03,2.81-0.01,4.22,0.02c-0.01,6.82,0,13.64,0,20.46
		c2.02,0,4.04,0,6.07,0c0-6.82,0-13.64,0-20.46c2.96-0.01,5.92,0,8.88,0c0.01,4.35-0.01,8.69,0.01,13.04
		c0.03,2.02,0.37,4.19,1.71,5.79c1.16,1.41,3,2.06,4.78,2.19c1.87,0.13,3.81-0.1,5.55-0.85v12.08H64.41c0-9.35,0-18.7,0-28.05
		c-9.35,0-18.7,0-28.05,0c0,9.35,0,18.7,0,28.05H33.5c0-9.35,0-18.7,0-28.05c-9.35-0.01-18.7,0-28.05,0V34.5c9.35,0,18.7,0,28.05,0
		C33.5,25.15,33.5,15.8,33.5,6.45L33.5,6.45z"/>
	<path class="st2" d="M36.37,6.45h28.05c0,9.35,0,18.7,0,28.05c-9.35,0-18.7,0-28.04,0C36.36,25.15,36.37,15.8,36.37,6.45
		L36.37,6.45z"/>
	<path class="st3" d="M258.38,17.14c2.59-1.68,5.93-1.84,8.84-1.04c0.03,1.73,0,3.47,0.01,5.2c-1.38-0.61-3.01-1.01-4.47-0.41
		c-1.16,0.46-1.84,1.64-2.02,2.83c-0.22,1.5-0.08,3.03-0.11,4.54c2.96,0.01,5.92,0,8.87,0c0.02-1.92-0.02-3.84,0.03-5.76
		c2.01-0.57,4-1.21,6-1.82c0.02,2.53-0.02,5.06,0.02,7.59c2-0.03,4-0.01,6-0.01v4.93c-2.01-0.08-4.02-0.02-6.03-0.03
		c0.01,2.83,0,5.66,0,8.5c0.03,1.57-0.08,3.14,0.1,4.71c0.11,0.92,0.45,1.94,1.31,2.42c1.45,0.81,3.28,0.46,4.61-0.43v4.97
		c-1.73,0.75-3.67,0.98-5.55,0.85c-1.78-0.13-3.62-0.78-4.78-2.19c-1.34-1.6-1.69-3.76-1.71-5.79c-0.02-4.35,0-8.69-0.01-13.04
		c-2.96,0-5.92,0-8.88,0c0,6.82,0,13.64,0,20.46c-2.02,0-4.04,0-6.07,0c0-6.82-0.01-13.64,0-20.46c-1.41-0.03-2.81,0.01-4.22-0.02
		c0.01-1.62,0.01-3.24,0-4.86c1.4-0.03,2.8-0.02,4.2-0.01c0.1-2.15-0.23-4.37,0.42-6.47C255.5,19.92,256.71,18.21,258.38,17.14
		L258.38,17.14z"/>
	<path class="st3" d="M128.5,17.49c1.22-0.19,2.55,0.23,3.36,1.19c0.95,1.05,1.13,2.72,0.42,3.94c-0.78,1.38-2.52,2.02-4.04,1.69
		c-1.58-0.28-2.89-1.75-2.82-3.38C125.38,19.22,126.82,17.69,128.5,17.49L128.5,17.49z"/>
	<path class="st3" d="M82.02,18.25c2.94,0,5.88,0,8.82,0c2.75,6.97,5.51,13.94,8.26,20.91c0.7,1.74,1.36,3.51,2.1,5.24
		c3.53-8.71,7.12-17.4,10.62-26.13c2.83-0.05,5.66-0.01,8.49-0.02c-0.01,11.79,0,23.58,0,35.37c-2.04-0.01-4.08,0.02-6.12-0.01
		c0.02-8.7,0-17.4,0.01-26.1c0-0.39-0.01-0.78-0.04-1.17c-0.12,0.18-0.23,0.37-0.32,0.57c-3.51,8.91-7.08,17.79-10.56,26.7
		c-1.45,0.05-2.91,0-4.36,0.03c-3.62-8.91-7.19-17.83-10.79-26.75c-0.09-0.19-0.2-0.37-0.3-0.54c-0.07,3.81-0.01,7.63-0.03,11.44
		c0,5.28,0,10.56,0,15.84c-1.93,0.01-3.85,0-5.77,0C82.01,41.83,82.01,30.04,82.02,18.25L82.02,18.25z"/>
	<path class="st3" d="M145.2,28.24c2.93-0.83,6.08-0.8,9.01,0.03c0.6,0.17,1.19,0.4,1.73,0.72c-0.03,1.93,0,3.87-0.02,5.8
		c-1.96-1.49-4.44-2.44-6.92-2.13c-1.97,0.18-3.86,1.2-5.04,2.8c-1.52,1.98-1.87,4.6-1.61,7.02c0.2,1.89,0.98,3.79,2.45,5.04
		c1.53,1.36,3.67,1.84,5.68,1.69c1.98-0.23,3.84-1.06,5.44-2.23c0.02,1.83-0.01,3.66,0.01,5.49c-2.48,1.48-5.45,1.86-8.29,1.72
		c-2.9-0.15-5.8-1.25-7.9-3.29c-2.28-2.2-3.52-5.34-3.67-8.49c-0.15-3.27,0.52-6.68,2.4-9.41C140.04,30.67,142.51,29.02,145.2,28.24
		L145.2,28.24z"/>
	<path class="st3" d="M186.29,27.81c2.91-0.37,5.98-0.21,8.68,1.02c2.34,1.06,4.24,3.01,5.3,5.36c1.12,2.49,1.4,5.29,1.21,8
		c-0.19,2.64-1.02,5.28-2.67,7.38c-1.69,2.23-4.24,3.74-6.96,4.3c-2.33,0.49-4.77,0.48-7.1-0.01c-2.79-0.6-5.37-2.22-7.01-4.57
		c-1.92-2.73-2.47-6.2-2.22-9.47c0.17-2.77,1.03-5.57,2.8-7.75C180.26,29.63,183.24,28.19,186.29,27.81L186.29,27.81z"/>
	<path class="st3" d="M211.46,27.86c2.8-0.49,5.74-0.13,8.4,0.87c0,1.86,0,3.72,0,5.58c-1.85-1.28-4.12-1.96-6.37-1.88
		c-1.13,0.04-2.38,0.52-2.9,1.6c-0.41,1.07-0.13,2.46,0.88,3.1c1.72,1.15,3.77,1.64,5.55,2.67c1.4,0.79,2.76,1.82,3.48,3.31
		c1.34,2.78,0.77,6.46-1.58,8.54c-2.24,2.1-5.47,2.68-8.44,2.56c-2.11-0.14-4.23-0.55-6.17-1.41c0.01-1.96-0.01-3.91,0.01-5.86
		c1.63,1.18,3.51,2.03,5.5,2.38c1.39,0.23,2.89,0.24,4.19-0.38c1.24-0.61,1.46-2.37,0.72-3.45c-0.69-0.83-1.7-1.29-2.65-1.73
		c-1.79-0.8-3.67-1.48-5.24-2.68c-1.1-0.86-1.94-2.07-2.27-3.44c-0.49-2.02-0.33-4.29,0.84-6.05
		C206.76,29.51,209.09,28.28,211.46,27.86L211.46,27.86z"/>
	<path class="st3" d="M234.64,27.8c3.03-0.38,6.24-0.17,9,1.22c2.41,1.2,4.28,3.38,5.21,5.9c0.73,1.93,0.99,4,0.94,6.05
		c0.01,3.06-0.82,6.21-2.74,8.63c-1.8,2.35-4.55,3.88-7.46,4.36c-2.84,0.46-5.84,0.34-8.54-0.72c-2.74-1.08-5.01-3.27-6.16-5.98
		c-1.2-2.76-1.33-5.86-0.95-8.81c0.39-2.95,1.73-5.83,4-7.79C229.8,29.04,232.2,28.11,234.64,27.8L234.64,27.8z"/>
	<path class="st3" d="M169.5,28.66c1.67-1.01,3.8-1.09,5.63-0.48c-0.01,2.02,0,4.05-0.01,6.07c-1.2-0.77-2.69-1.11-4.1-0.96
		c-1.72,0.2-3.09,1.52-3.79,3.03c-0.77,1.61-0.91,3.42-0.86,5.18c0,4.04,0,8.08,0,12.12c-1.99,0-3.99,0-5.98,0
		c-0.01-8.45,0.01-16.89-0.01-25.34c2-0.03,3.99-0.02,5.99-0.01c-0.01,1.45,0,2.9-0.01,4.35C167.01,31.05,167.98,29.52,169.5,28.66
		L169.5,28.66z"/>
	<path class="st3" d="M125.98,28.28c2.01-0.01,4.02-0.03,6.04,0.01c-0.02,8.44,0,16.89-0.01,25.34c-2.01,0-4.02,0-6.02,0
		C125.98,45.17,125.98,36.72,125.98,28.28L125.98,28.28z"/>
	<path class="st1" d="M188.1,32.62c1.82-0.12,3.76,0.4,5.07,1.72c1.4,1.38,1.94,3.38,2.09,5.28c0.11,2.09,0.02,4.26-0.85,6.2
		c-0.58,1.3-1.64,2.41-2.98,2.93c-1.57,0.6-3.33,0.64-4.94,0.22c-1.65-0.43-3.04-1.62-3.8-3.14c-0.98-1.95-1.12-4.21-0.92-6.35
		c0.18-1.95,0.86-3.95,2.34-5.29C185.19,33.19,186.65,32.7,188.1,32.62L188.1,32.62z"/>
	<path class="st1" d="M236.28,32.63c1.71-0.12,3.54,0.28,4.86,1.43c1.21,1.01,1.89,2.52,2.19,4.04c0.35,1.78,0.34,3.63,0.05,5.42
		c-0.23,1.33-0.69,2.66-1.57,3.72c-0.88,1.06-2.19,1.71-3.54,1.91c-1.45,0.22-2.98,0.11-4.34-0.47c-1.47-0.62-2.6-1.89-3.2-3.35
		c-0.72-1.74-0.86-3.66-0.72-5.52c0.14-1.8,0.65-3.65,1.84-5.05C232.94,33.44,234.6,32.72,236.28,32.63L236.28,32.63z"/>
	<path class="st1" d="M275.52,33.16c2.01,0.01,4.02-0.05,6.03,0.03v15.16c-1.33,0.89-3.17,1.24-4.61,0.43
		c-0.86-0.48-1.2-1.5-1.31-2.42c-0.18-1.56-0.07-3.14-0.1-4.71C275.52,38.83,275.53,36,275.52,33.16L275.52,33.16z"/>
	<path class="st4" d="M5.45,37.36c9.35,0,18.7,0,28.05,0c0,9.35,0,18.7,0,28.05H5.45V37.36L5.45,37.36z"/>
	<path class="st5" d="M36.37,37.37c9.35,0,18.7,0,28.05,0c0,9.35,0,18.7,0,28.05H36.37C36.37,56.06,36.36,46.71,36.37,37.37
		L36.37,37.37z"/>
</g>
</svg>
