<?xml version="1.0" encoding="utf-8"?>
<!-- Generator: Adobe Illustrator 25.4.2, SVG Export Plug-In . SVG Version: 6.00 Build 0)  -->
<svg version="1.1" id="layer" xmlns="http://www.w3.org/2000/svg" xmlns:xlink="http://www.w3.org/1999/xlink" x="0px" y="0px"
	 viewBox="0 0 652 652" style="enable-background:new 0 0 652 652;" xml:space="preserve">
<path d="M108,241.8L108,241.8c-44.1,0-80.2,35.7-80.2,79.8c0,44.3,36.1,80.4,80.2,80.4c43.9,0,80-36.1,80-80.4
	C188,277.5,151.8,241.8,108,241.8z M194.9,321.6L194.9,321.6c0,48.1-39.2,87.1-86.9,87.1c-47.9,0-87.1-39.1-87.1-87.1
	c0-47.5,39.2-86.6,87.1-86.6C155.6,235,194.9,274.1,194.9,321.6z M123.8,359.5L123.8,359.5h-32c-1.2,0-2.1,0.8-2.1,2.1
	c0,0.8,0.8,2.1,2.1,2.1h31.9c1.2,0,2.1-1.3,2.1-2.1C125.9,360.4,125,359.5,123.8,359.5z M122.1,281.3L122.1,281.3
	c-0.5-0.8-1.3-1.3-2.2-1.3h-2.1c-0.8,0-1.7,0.4-1.7,1.3l-6.9,19.1l-1.3,3.8l-2.9,8.2l-1.6,4.2l-10.7,30.2c-0.5,1.3,0.6,2.9,2.3,2.9
	h1.2c0.8,0,1.7-0.4,1.7-1.3l10.1-28.1l9.9,28.1c0,0.8,0.8,1.3,1.7,1.3h1.2c1.7,0,2.5-1.7,2.2-2.9l-10.6-30.2l-1.2-3.4
	c-0.4-0.4-0.4-0.8,0-1.3l1.2-3.4l4.6-14.1c0.8-1.7,3.4-1.7,3.8,0l19.1,54c0.4,0.8,1.2,1.3,2.1,1.3h1.4c1.2,0,2.5-1.7,2.1-2.9
	L122.1,281.3z M98.7,294.5L98.7,294.5c0,0,1.6,5.1,2.5,7.2c0.5,1.7,3.4,1.7,3.8,0c0-0.4,0.8-2.1,0.8-2.1c0-0.4,0-0.8,0-1.3l-6.3-17
	c0-0.8-0.8-1.3-1.7-1.3h-2.2c-0.8,0-1.6,0.4-2.1,1.3l-23.4,65.5c-0.5,1.3,0.8,2.9,2.1,2.9h1.2c0.8,0,1.7-0.4,2.2-1.3l19.2-54
	C95.3,292.8,97.9,292.8,98.7,294.5z M444.7,359.5L444.7,359.5h-32.3c-1.2,0-2.1,0.8-2.1,2.1c0,0.8,0.8,2.1,2.1,2.1h32.3
	c0.8,0,2.3-1.3,2.3-2.1C447,360.4,445.6,359.5,444.7,359.5z M481.4,326.4L481.4,326.4c0-9-2.7-17.8-11.9-17.8h-5v35.7h5
	C478.7,344.2,481.4,335.2,481.4,326.4z M487.3,326.4L487.3,326.4c0,13.6-5.5,23.3-17.9,23.3H460c-0.8,0-1.7-0.8-1.7-1.7v-43.3
	c0-1,0.8-1.8,1.7-1.8h9.4C481.9,302.9,487.3,312.8,487.3,326.4z M421.8,334L421.8,334h13.6l-6.9-21.2c0-0.4,0-0.4,0,0L421.8,334z
	 M411.6,347.2L411.6,347.2l14.4-43c0-0.8,0.8-1.3,1.7-1.3h1.8c0.8,0,1.7,0.4,1.7,1.3l14.3,43c0.5,1.3-0.4,2.5-1.6,2.5h-2.2
	c-0.8,0-1.7-0.4-1.7-1.3l-2.9-9.4h-17l-2.9,9.4c-0.5,0.8-0.8,1.3-1.7,1.3h-2.1C412,349.7,411.1,348.4,411.6,347.2z M520.9,334
	L520.9,334l-6.7-21.2c0-0.4,0-0.4,0,0l-6.9,21.2H520.9z M531.2,347.2L531.2,347.2c0.5,1.3-0.4,2.5-1.8,2.5h-2.1
	c-0.8,0-1.7-0.4-1.7-1.3l-2.9-9.4h-17l-2.9,9.4c-0.4,0.8-0.8,1.3-1.7,1.3H499c-1.2,0-2.3-1.3-1.7-2.5l14.4-43c0-0.8,0.8-1.3,1.6-1.3
	h1.9c0.8,0,1.6,0.4,1.6,1.3L531.2,347.2z M608.4,323.4L608.4,323.4c-6.3-3.9-8-6.5-8-10.3s2.5-5.9,6.7-5.9c2.5,0,5,1.3,7.2,3
	c0.6,0.4,1.4,0.8,1.8,1.7c0.8,0.4,1.7,0.4,2.5,0l1.2-1.3c0.8-0.8,0.8-2.1,0.4-2.5c-1.2-1.3-2.5-2.5-3.8-2.9
	c-2.7-2.2-5.6-3.1-9.4-3.1c-7.1,0-13.2,3.9-13.2,11.5c0,5.5,2.5,9.8,11.1,14.5c7.1,4.2,9.9,6.7,9.9,10.5c0,3.5-2.3,6.5-7.3,6.5
	c-3.8,0-6.8-1.7-8.9-4.6c-0.4-0.4-0.4-1-0.8-1.4c-0.6-0.4-1.8-0.8-2.7,0l-1.2,1c-0.8,0.8-0.8,1.7-0.5,2.5c0.5,0.8,1.3,1.7,1.7,2.1
	c2.7,2.9,6.9,5.9,12.4,5.9c9.4,0,13.2-5.9,13.2-12.4C620.8,332.3,616.6,328.1,608.4,323.4z M388.2,323.4L388.2,323.4
	c-6.3-3.9-8-6.5-8-10.3s2.5-5.9,6.7-5.9c2.5,0,5,1.3,7.2,3c0.4,0.4,1.2,0.8,1.8,1.7c0.8,0.4,1.7,0.4,2.5,0l1.2-1.3
	c0.8-0.8,0.8-2.1,0-2.5c-0.8-1.3-2.1-2.5-3.4-2.9c-2.7-2.2-5.6-3.1-9.4-3.1c-7.1,0-13.2,3.9-13.2,11.5c0,5.5,2.5,9.8,11.1,14.5
	c7.1,4.2,9.7,6.7,9.7,10.5c0,3.5-2.1,6.5-7.1,6.5c-3.8,0-6.8-1.7-9-4.6c-0.5-0.4-0.5-1-0.8-1.4c-0.5-0.4-1.7-0.8-2.5,0l-1.2,1
	c-0.8,0.8-0.8,1.7-0.5,2.5c0.5,0.8,1.3,1.7,1.7,2.1c2.5,2.9,6.9,5.9,12.4,5.9c9.4,0,13.2-5.9,13.2-12.4
	C400.6,332.3,396.4,328.1,388.2,323.4z M350,323.4L350,323.4c-6.9-3.9-8.5-6.5-8.5-10.3s2.9-5.9,6.9-5.9c3,0,5.1,1.3,7.2,3
	c0.8,0.4,1.2,0.8,2.1,1.7c0.8,0.4,1.7,0.4,2.2,0l1.6-1.3c1-0.8,1-2.1,0-2.5c-0.8-1.3-2.5-2.5-3.3-2.9c-2.9-2.2-5.9-3.1-9.3-3.1
	c-7.3,0-13.2,3.9-13.2,11.5c0,5.5,2.5,9.8,10.6,14.5c7.6,4.2,9.7,6.7,9.7,10.5c0,3.5-1.7,6.5-6.8,6.5c-4.4,0-6.9-1.7-9.4-4.6
	c0-0.4-0.4-1-0.4-1.4c-0.8-0.4-1.7-0.8-2.5,0l-1.7,1c-0.4,0.8-0.8,1.7,0,2.5c0.5,0.8,0.8,1.7,1.2,2.1c2.5,2.9,7.2,5.9,12.4,5.9
	c9.7,0,13.1-5.9,13.1-12.4C361.8,332.3,358,328.1,350,323.4z M318.5,326.4L318.5,326.4c0-9.4-4.6-19.1-13.6-19.1
	c-8.8,0-13.6,9.7-13.6,19.1c0,9.3,4.8,18.7,13.6,18.7C313.9,345.1,318.5,335.7,318.5,326.4z M324.9,326.4L324.9,326.4
	c0,13.1-6.7,24.2-20,24.2c-13.2,0-19.9-11.1-19.9-24.2c0-13.2,6.7-24.3,19.9-24.3C318.1,302.1,324.9,313.2,324.9,326.4z
	 M578.7,302.9L578.7,302.9h-2.1c-0.8,0-1.2,0.4-1.7,1.3l-12.8,35.3c0,0.6,0,0.6,0,0l-12.6-35.3c-0.5-0.8-1.3-1.3-1.7-1.3h-2.3
	c-0.8,0-1.6,0.8-1.6,1.8V348c0,0.8,0.8,1.7,1.6,1.7h2.3c0.8,0,1.7-0.8,1.7-1.7v-27.7c0-0.4,0.4-0.4,0.4,0l9.7,28.1
	c0.4,0.8,0.8,1.3,1.6,1.3h1.7c0.8,0,1.4-0.4,1.8-1.3l9.7-28.1c0-0.4,0.4-0.4,0.4,0V348c0,0.8,0.5,1.7,1.7,1.7h2.1
	c0.8,0,1.7-0.8,1.7-1.7v-43.3C580.4,303.8,579.5,302.9,578.7,302.9z M273,304.7L273,304.7V348c0,0.8-0.8,1.7-1.7,1.7h-2.1
	c-1.3,0-1.7-0.8-1.7-1.7v-27.7c0-0.4-0.4-0.4-0.4,0l-9.9,28.1c-0.5,0.8-0.8,1.3-1.7,1.3h-1.7c-0.8,0-1.2-0.4-1.7-1.3l-9.8-28.1
	c0-0.4-0.5-0.4-0.5,0V348c0,0.8-0.8,1.7-1.7,1.7H238c-0.8,0-1.7-0.8-1.7-1.7v-43.3c0-1,0.8-1.8,1.7-1.8h2.1c0.5,0,1.3,0.4,1.7,1.3
	l12.8,35.3c0,0.6,0,0.6,0,0l12.8-35.3c0.4-0.8,0.8-1.3,1.7-1.3h2.1C272.2,302.9,273,303.8,273,304.7z"/>
</svg>
