<?xml version="1.0" encoding="utf-8"?>
<!-- Generator: Adobe Illustrator 25.4.2, SVG Export Plug-In . SVG Version: 6.00 Build 0)  -->
<svg version="1.1" id="Layer_1" xmlns="http://www.w3.org/2000/svg" xmlns:xlink="http://www.w3.org/1999/xlink" x="0px" y="0px"
	 viewBox="0 0 288 72" style="enable-background:new 0 0 288 72;" xml:space="preserve">
<path d="M18.05,4.73h20.27c4.64,0,10.1,4.33,12.54,6.71l35.57,39.44V4.73h12.08V67.7H77.36c-3.77-0.13-7.47-0.9-11.78-5.14
	L30.07,23.05V67.7H18.05V4.73z M269.95,68.13c-14.47,1.98-29.11,2.17-43.78,0.94c-8.59-0.76-17-2.53-24.71-6.55
	c-9.73-5.04-12.83-16.38-12.7-26.66c0.11-9.49,2.93-19.61,11.39-25.13c5.55-3.64,11.47-4.84,17.77-5.98
	c17.19-3.03,34.41-2.35,51.18-0.51v8.98c-19.78-3.84-40.66-2.89-47.76,6.2c-4.44,5.65-5.07,11.28-5.07,16.01
	c0,8.53,2.92,21.48,20.26,23.99c11.31,1.66,22.51,0.4,33.42-1.59V68.13z M146.11,58.33c1.71,0.02,28.97,0.14,38.32,0v9.41
	c-18.85,0.73-36.95,1.04-55.99,0.25c-16.15-0.67-18.94-8.79-19.25-16.59V4.73h74.34v8.97h-48.09v16.03h43.83v8.75h-43.83
	c0,4.73,0.16,10.1,0.2,11.07C135.9,55.65,138.73,57.9,146.11,58.33"/>
</svg>
