<?xml version="1.0" encoding="utf-8"?>
<!-- Generator: Adobe Illustrator 25.4.2, SVG Export Plug-In . SVG Version: 6.00 Build 0)  -->
<svg version="1.1" id="Layer_1" xmlns="http://www.w3.org/2000/svg" xmlns:xlink="http://www.w3.org/1999/xlink" x="0px" y="0px"
	 viewBox="0 0 288 144" style="enable-background:new 0 0 288 144;" xml:space="preserve">
<path d="M49.33,51.51c0,0-6.72,12.71-6.72,23.72c0,0-0.61,25.92,26.16,25.92h3.67c0,0,5.38,1.71,98.04-25.92H147l-1.22-29.1
	l-11,29.1h-16.87l26.65-70.66h16.14l-7.34,20.29l17.36-20.29h50.86l-4.4,11.74h-17.36l-5.38,14.91h16.13l-5.13,13.2h-15.89
	l-6.36,17.36h19.07l-1.47,5.13c0,0,69.19-17.85,76.52-19.8c0,0-197.19,93.45-229.47,93.45c0,0-31.16,0.19-31.16-25.24
	C16.69,115.32,13.14,91.61,49.33,51.51z M163.38,70.34l23.63-63.9l-25.1,26.73L163.38,70.34z M124.75,4.57L98.51,75.23h16.3
	l26.41-70.66H124.75z M51.73,75.23h16.3l11.74-30.81l-1.3,30.81h17.28l26.41-70.66h-16.14L93.95,35.78L95.9,4.57H78.46L51.73,75.23z
	 M63.99,91.51c0,0.62-0.16,1.2-0.47,1.75c-0.31,0.54-0.74,0.97-1.28,1.28C61.7,94.85,61.12,95,60.5,95c-0.62,0-1.2-0.16-1.74-0.47
	c-0.54-0.31-0.97-0.74-1.28-1.28c-0.31-0.54-0.47-1.12-0.47-1.75c0-0.62,0.16-1.21,0.47-1.75c0.31-0.54,0.74-0.97,1.28-1.28
	c0.54-0.31,1.12-0.47,1.74-0.47c0.62,0,1.21,0.16,1.74,0.47c0.54,0.31,0.97,0.74,1.28,1.28C63.83,90.31,63.99,90.89,63.99,91.51z
	 M63.31,91.51c0-0.78-0.28-1.44-0.83-1.99c-0.55-0.55-1.21-0.82-1.99-0.82c-0.78,0-1.44,0.27-1.99,0.82
	c-0.55,0.55-0.82,1.21-0.82,1.99c0,0.78,0.27,1.44,0.82,1.99c0.55,0.55,1.21,0.82,1.99,0.82c0.78,0,1.44-0.28,1.99-0.82
	C63.03,92.95,63.31,92.29,63.31,91.51z M58.91,89.65h1.67c0.47,0,0.81,0.09,1.03,0.28c0.21,0.19,0.32,0.45,0.32,0.77
	c0,0.25-0.08,0.47-0.24,0.65c-0.16,0.18-0.42,0.32-0.76,0.4c0.14,0.06,0.25,0.11,0.32,0.17c0.09,0.09,0.19,0.21,0.3,0.38
	c0.01,0.01,0.21,0.37,0.61,1.08h-1.1c-0.36-0.71-0.6-1.13-0.72-1.27c-0.12-0.14-0.24-0.21-0.37-0.21c-0.03,0-0.07,0-0.11,0.01v1.47
	h-0.92V89.65z M59.84,91.23h0.4c0.27,0,0.46-0.04,0.57-0.13c0.11-0.09,0.17-0.2,0.17-0.34c0-0.14-0.05-0.25-0.16-0.34
	c-0.11-0.09-0.29-0.13-0.54-0.13h-0.44V91.23z M232,8.03c0,0.62-0.16,1.21-0.47,1.75c-0.31,0.54-0.74,0.96-1.28,1.28
	c-0.54,0.31-1.12,0.47-1.75,0.47c-0.62,0-1.2-0.16-1.74-0.47c-0.54-0.31-0.96-0.74-1.28-1.28c-0.31-0.54-0.47-1.12-0.47-1.75
	c0-0.62,0.16-1.2,0.47-1.75c0.31-0.54,0.74-0.97,1.28-1.28c0.54-0.31,1.12-0.47,1.74-0.47c0.63,0,1.21,0.16,1.75,0.47
	c0.54,0.31,0.96,0.74,1.28,1.28C231.85,6.83,232,7.41,232,8.03z M231.33,8.03c0-0.78-0.28-1.44-0.82-1.99
	c-0.55-0.55-1.21-0.83-1.99-0.83c-0.78,0-1.44,0.28-1.99,0.83c-0.55,0.55-0.82,1.21-0.82,1.99c0,0.78,0.27,1.44,0.82,1.99
	c0.55,0.55,1.21,0.83,1.99,0.83c0.78,0,1.44-0.28,1.99-0.83C231.05,9.47,231.33,8.81,231.33,8.03z M226.93,6.16h1.67
	c0.47,0,0.81,0.1,1.03,0.29c0.21,0.19,0.32,0.45,0.32,0.77c0,0.25-0.08,0.47-0.24,0.65c-0.16,0.18-0.41,0.32-0.76,0.4
	c0.14,0.06,0.25,0.11,0.32,0.17c0.09,0.08,0.19,0.21,0.3,0.38c0.01,0.01,0.21,0.37,0.61,1.08h-1.1c-0.36-0.71-0.6-1.13-0.72-1.27
	c-0.12-0.14-0.24-0.21-0.37-0.21c-0.03,0-0.06,0-0.11,0.01V9.9h-0.93V6.16z M227.86,7.75h0.4c0.27,0,0.46-0.04,0.57-0.13
	c0.11-0.09,0.16-0.2,0.16-0.34c0-0.14-0.05-0.25-0.16-0.34c-0.11-0.09-0.29-0.13-0.54-0.13h-0.44V7.75z"/>
</svg>
