<?xml version="1.0" encoding="utf-8"?>
<!-- Generator: Adobe Illustrator 25.4.2, SVG Export Plug-In . SVG Version: 6.00 Build 0)  -->
<svg version="1.1" id="Horizontal" xmlns="http://www.w3.org/2000/svg" xmlns:xlink="http://www.w3.org/1999/xlink" x="0px" y="0px"
	 viewBox="0 0 288 72" style="enable-background:new 0 0 288 72;" xml:space="preserve">
<path d="M142.44,23.34c-3.46,0-6.83,1.29-9.3,3.76s-3.76,5.94-3.76,9.3c0,3.46,1.19,6.83,3.66,9.4c2.47,2.57,5.84,3.86,9.3,3.86
	s6.83-1.29,9.3-3.76s3.76-5.94,3.76-9.3c0-3.46-1.19-6.83-3.66-9.4C149.16,24.72,145.8,23.34,142.44,23.34z M149.26,37.98
	c-0.1,0.49-0.2,0.99-0.4,1.38c-0.2,0.4-0.4,0.89-0.59,1.29c-0.2,0.4-0.49,0.79-0.79,1.09c-0.3,0.3-0.69,0.59-0.99,0.89
	c-0.4,0.2-0.79,0.49-1.19,0.59c-0.4,0.2-0.89,0.3-1.38,0.4s-0.99,0.1-1.48,0.1s-0.99,0-1.48-0.2c-0.49-0.1-0.99-0.2-1.38-0.4
	c-0.4-0.2-0.79-0.4-1.19-0.59c-0.4-0.2-0.69-0.59-0.99-0.89c-0.3-0.3-0.59-0.69-0.79-1.09c-0.2-0.4-0.49-0.79-0.59-1.29
	c-0.2-0.49-0.3-0.99-0.4-1.38c-0.1-0.49-0.1-0.99-0.1-1.48c0-0.49,0-0.99,0.2-1.48c0.1-0.49,0.2-0.99,0.4-1.38
	c0.2-0.4,0.4-0.89,0.59-1.29c0.2-0.4,0.49-0.79,0.79-1.09c0.3-0.3,0.69-0.59,0.99-0.89c0.4-0.2,0.79-0.49,1.19-0.59
	c0.4-0.2,0.89-0.3,1.38-0.4s0.99-0.1,1.48-0.1s0.99,0,1.48,0.2c0.49,0.1,0.99,0.2,1.38,0.4c0.4,0.2,0.79,0.4,1.19,0.59
	c0.4,0.2,0.69,0.59,0.99,0.89c0.3,0.3,0.59,0.69,0.79,1.09c0.2,0.4,0.49,0.79,0.59,1.29c0.2,0.49,0.3,0.99,0.4,1.38
	c0.1,0.49,0.1,0.99,0.1,1.48S149.36,37.48,149.26,37.98z M93.67,13.25c-3.46-2.77-7.42-4.65-11.67-5.74
	c-2.47-0.59-4.95-0.89-7.42-0.99c-1.88-0.1-3.76,0-5.54,0H42.62c-1.88,0-3.76,0-5.54,0c-2.47,0.1-4.95,0.4-7.42,0.99
	c-4.25,0.99-8.21,2.97-11.67,5.74C11.06,18.79,7.11,27.2,7.11,36c0,8.9,4.06,17.21,10.88,22.75c3.46,2.77,7.42,4.65,11.67,5.74
	c2.47,0.59,4.95,0.89,7.42,0.99c1.88,0.1,3.76,0,5.54,0h26.41c1.88,0,3.76,0,5.54,0c2.47-0.1,4.95-0.4,7.42-0.99
	c4.25-0.99,8.21-2.97,11.67-5.74c6.92-5.54,10.88-13.95,10.88-22.75C104.55,27.2,100.59,18.79,93.67,13.25z M80.71,44.01
	c-1.29,0.89-2.77,1.48-4.25,1.68s-3.07,0.2-4.65,0.2H39.75c-1.58,0-3.07,0-4.65-0.2c-1.58-0.2-2.97-0.79-4.25-1.68
	c-2.57-1.78-4.15-4.75-4.15-7.91c0-3.17,1.58-6.13,4.15-7.91c1.29-0.89,2.77-1.48,4.25-1.68c1.48-0.2,3.07-0.2,4.65-0.2H71.8
	c1.58,0,3.07,0,4.65,0.2c1.58,0.2,2.97,0.79,4.25,1.68c2.57,1.78,4.15,4.75,4.15,7.91C84.96,39.26,83.38,42.23,80.71,44.01z
	 M248.29,35.7c0,0.69,0,1.38,0,2.08c0,0.4-0.1,0.89-0.2,1.38c-0.2,0.79-0.4,1.58-0.89,2.28c-1.09,1.68-3.07,2.57-5.05,2.67
	c-1.98,0-3.96-0.79-4.95-2.57c-0.4-0.79-0.69-1.48-0.89-2.37c-0.2-1.09-0.3-2.28-0.3-3.36c0-0.79,0-1.48,0-2.18v-3.76v-5.94h-5.94
	v10.19c0,0.99,0,1.98,0,2.97c0,0.69,0,1.48,0.1,2.18c0.2,1.68,0.49,3.36,1.19,4.95c1.58,3.17,4.65,5.05,8.01,5.44
	c1.68,0.2,3.46,0,5.05-0.4c1.58-0.49,3.26-1.29,4.35-2.47c0,0.79,0.1,1.68,0.2,2.47h5.24V24.13h-5.94L248.29,35.7L248.29,35.7z
	 M280.34,39.17c-0.89-2.47-2.97-3.96-5.24-4.75c-1.29-0.49-2.57-0.79-3.86-1.09c-0.59-0.1-1.19-0.2-1.68-0.4
	c-0.49-0.1-0.99-0.3-1.48-0.49s-0.99-0.49-1.38-0.99c-0.3-0.4-0.49-0.79-0.4-1.29c0.1-0.59,0.4-0.99,0.79-1.38
	c0.3-0.2,0.59-0.4,0.99-0.59c0.49-0.2,0.99-0.3,1.38-0.4c0.99-0.1,1.98,0,2.87,0.2c1.48,0.3,2.77,0.89,4.06,1.68
	c0.99-1.38,1.98-2.67,2.97-4.06c-1.98-1.48-4.25-2.37-6.73-2.77c-1.38-0.2-2.77-0.2-4.06,0c-1.09,0.2-2.08,0.4-3.07,0.79
	c-1.29,0.59-2.47,1.38-3.36,2.47c-0.69,0.79-1.19,1.68-1.38,2.67c-0.4,1.19-0.4,2.47,0,3.76c0.4,1.19,0.99,2.08,1.88,2.87
	c1.88,1.58,4.45,2.18,6.73,2.67c0.79,0.2,1.58,0.3,2.37,0.59c0.59,0.2,1.29,0.4,1.88,0.79c0.4,0.3,0.89,0.59,1.19,1.09
	c0.2,0.4,0.4,0.79,0.3,1.29c0,0.4-0.2,0.79-0.49,1.19c-0.3,0.4-0.69,0.69-1.19,0.89c-0.59,0.3-1.19,0.4-1.88,0.49
	c-0.89,0.1-1.78,0.1-2.67,0c-0.99-0.1-1.88-0.4-2.87-0.69c-1.38-0.49-2.67-1.29-3.86-2.18c-1.09,1.38-2.08,2.87-3.17,4.25
	c1.88,1.58,4.06,2.67,6.43,3.46c1.29,0.4,2.67,0.59,4.06,0.59c1.09,0,2.18,0,3.26-0.2c1.38-0.2,2.77-0.69,3.96-1.38
	c0.89-0.59,1.68-1.19,2.28-2.08c0.79-1.09,1.38-2.28,1.48-3.66C280.83,41.34,280.73,40.25,280.34,39.17L280.34,39.17z M174.69,43.52
	c-1.38,0.3-2.87,0.3-4.25-0.2s-2.57-1.29-3.46-2.47c-0.79-1.19-1.29-2.57-1.38-4.06c-0.1-1.38,0.2-2.87,0.89-4.15
	c0.69-1.38,1.68-2.28,3.07-2.87c0.59-0.2,1.19-0.4,1.78-0.49c0.79-0.1,1.58-0.2,2.37,0c1.48,0.2,2.77,0.69,4.06,1.48
	c1.19-1.48,2.37-3.07,3.66-4.55c-2.08-1.68-4.45-2.57-7.02-2.87c-2.57-0.3-5.14,0.1-7.52,1.19c-2.37,1.19-4.25,2.87-5.54,5.24
	c-1.19,2.28-1.68,4.95-1.58,7.42c0.1,2.57,0.89,5.14,2.37,7.22c1.48,2.18,3.66,3.66,6.13,4.55c2.47,0.79,5.14,0.99,7.62,0.4
	c2.47-0.59,4.85-1.78,6.73-3.66c-1.38-1.38-2.67-2.87-4.06-4.25C177.36,42.53,176.07,43.22,174.69,43.52L174.69,43.52z
	 M217.32,10.48h6.33v38.48h-6.33V10.48z M204.46,35.7c0,0.69,0,1.38,0,2.08c0,0.4-0.1,0.89-0.2,1.38c-0.2,0.79-0.4,1.58-0.89,2.28
	c-1.09,1.68-3.07,2.57-5.05,2.67c-1.98,0-3.96-0.79-4.95-2.57c-0.4-0.79-0.69-1.48-0.89-2.37c-0.2-1.09-0.3-2.28-0.3-3.36
	c0-0.79,0-1.48,0-2.18v-3.76v-5.94h-5.94v10.19c0,0.99,0,1.98,0,2.97c0,0.69,0,1.48,0.1,2.18c0.2,1.68,0.49,3.36,1.19,4.95
	c1.58,3.17,4.65,5.05,8.01,5.44c1.68,0.2,3.46,0,5.05-0.4c1.58-0.49,3.26-1.29,4.35-2.47c0,0.79,0.1,1.68,0.2,2.47h5.05V24.13h-5.84
	L204.46,35.7L204.46,35.7z"/>
</svg>
