<?xml version="1.0" encoding="utf-8"?>
<!-- Generator: Adobe Illustrator 25.4.2, SVG Export Plug-In . SVG Version: 6.00 Build 0)  -->
<svg version="1.1" id="Layer_1" xmlns="http://www.w3.org/2000/svg" xmlns:xlink="http://www.w3.org/1999/xlink" x="0px" y="0px"
	 viewBox="0 0 288 72" style="enable-background:new 0 0 288 72;" xml:space="preserve">
<style type="text/css">
	.st0{clip-path:url(#SVGID_00000162325174172024191750000003377018369672670907_);}
</style>
<g>
	<g>
		<defs>
			<rect id="SVGID_1_" x="10.07" y="11.95" width="266.74" height="49.1"/>
		</defs>
		<clipPath id="SVGID_00000081626598957645239470000007027565876891143085_">
			<use xlink:href="#SVGID_1_"  style="overflow:visible;"/>
		</clipPath>
		<path style="clip-path:url(#SVGID_00000081626598957645239470000007027565876891143085_);" d="M100.54,12.93H86.22v18.66H71.3
			V12.93H56.97v46.94H71.3V41.41h14.91v18.47h14.33V12.93z M150.39,50.44V12.93h-14.33v46.94h25.91l2.16-9.43H150.39z M125.47,12.93
			h-14.33v46.94h14.33V12.93z M183.55,12.93h-14.32v46.94h14.32V12.93z M254.19,24.91c0-2.55,2.55-3.74,6.67-3.74
			c4.52,0,9.42,0.99,12.76,2.37l-1.17-10.22c-3.74-0.79-7.07-1.37-13.15-1.37c-11.58,0-19.43,4.57-19.43,14.14
			c0,16.5,22.38,13.16,22.38,20.82c0,2.94-2.17,4.51-7.47,4.51c-4.7,0-11.97-1.57-16.29-3.73l1.57,10.81
			c4.32,1.58,10.2,2.35,14.91,2.35c11.97,0,21.78-3.93,21.78-15.71C276.77,29.43,254.19,32.38,254.19,24.91 M213.78,48.68
			c13.34,0,21.78-6.88,21.78-18.86c0-13.15-9.02-17.87-23.75-17.87c-5.69,0-12.56,0.39-17.46,0.98v46.94h14.33v-11.2H213.78z
			 M221.43,30.02c0,6.08-2.94,10.21-10.41,10.21h-2.35v-19.4c0.83-0.05,1.62-0.05,2.35-0.05C218.09,20.79,221.43,24.13,221.43,30.02
			 M29.5,48.68c13.34,0,21.78-6.88,21.78-18.86c0-13.15-9.03-17.87-23.74-17.87c-5.7,0-12.56,0.39-17.47,0.98v46.94H24.4v-11.2H29.5
			z M37.16,30.02c0,6.08-2.95,10.21-10.41,10.21H24.4v-19.4c0.83-0.05,1.62-0.05,2.35-0.05C33.82,20.79,37.16,24.13,37.16,30.02"/>
	</g>
</g>
</svg>
