<?xml version="1.0" encoding="utf-8"?>
<!-- Generator: Adobe Illustrator 25.4.2, SVG Export Plug-In . SVG Version: 6.00 Build 0)  -->
<svg version="1.1" id="Layer_1" xmlns="http://www.w3.org/2000/svg" xmlns:xlink="http://www.w3.org/1999/xlink" x="0px" y="0px"
	 viewBox="0 0 288 72" style="enable-background:new 0 0 288 72;" xml:space="preserve">
<style type="text/css">
	.st0{stroke:#000000;stroke-width:0.9662;}
	.st1{stroke:#000000;stroke-width:1.0716;}
	.st2{stroke:#000000;stroke-width:1.0185;}
	.st3{stroke:#000000;stroke-width:1.0507;}
</style>
<g>
	<rect x="9.05" y="33.12" width="9.84" height="9.84"/>
	<rect x="37.47" y="33.12" width="9.84" height="9.84"/>
	<rect x="67.22" y="33.12" width="9.84" height="9.84"/>
	<rect x="96.37" y="33.12" width="9.84" height="9.84"/>
	<path class="st0" d="M155.76,13.82c-1,0.07-1.79,0.25-2.39,0.53c-0.6,0.29-1.16,0.76-1.66,1.42c-0.38,0.48-0.67,1.01-0.86,1.59
		c-0.19,0.58-0.32,1.32-0.39,2.21c-0.12,1.19-0.18,2.59-0.18,4.21v25.21c0,2.35,0.1,4.09,0.31,5.23c0.21,1.14,0.58,2.05,1.13,2.74
		c0.96,1.21,2.31,1.87,4.05,1.98v0.74h-16.69v-0.74c1.01-0.07,1.83-0.26,2.44-0.56c0.62-0.31,1.17-0.78,1.66-1.42
		c0.54-0.73,0.91-1.66,1.11-2.79c0.2-1.13,0.3-2.86,0.3-5.18V18.4l-13.47,41.28h-0.55l-13.39-40.67v29.97c0,2.35,0.1,4.08,0.3,5.2
		c0.2,1.12,0.57,2.04,1.11,2.77c0.49,0.66,1.04,1.14,1.66,1.44c0.62,0.3,1.43,0.48,2.42,0.55v0.74h-12.05v-0.74
		c1-0.07,1.8-0.25,2.42-0.55c0.62-0.3,1.17-0.78,1.66-1.44c0.54-0.73,0.91-1.66,1.11-2.79c0.2-1.13,0.3-2.86,0.3-5.18V23.77
		c0-1.05-0.02-2.04-0.08-2.98c-0.09-1.69-0.29-2.92-0.6-3.69c-0.44-1.07-1.03-1.86-1.79-2.38c-0.76-0.51-1.77-0.82-3.02-0.91v-0.74
		h11.34l11.31,36.53l11.73-36.53h10.74V13.82z"/>
	<path class="st1" d="M157.9,43.46c0-4,1.18-7.57,3.55-10.7c2.88-3.8,6.32-5.7,10.32-5.7s7.43,1.9,10.29,5.7
		c2.37,3.16,3.55,6.74,3.55,10.74c0,3.95-1.13,7.47-3.37,10.55c-2.76,3.8-6.25,5.7-10.47,5.7s-7.72-1.9-10.5-5.7
		c-1.09-1.48-1.92-3.14-2.5-4.96C158.19,47.26,157.9,45.38,157.9,43.46z M163.28,43.03c0,4.29,0.77,7.93,2.31,10.92
		c1.74,3.33,3.86,5,6.36,5c1.07,0,2.1-0.37,3.11-1.11c1-0.74,1.87-1.78,2.61-3.11c0.77-1.38,1.39-3.11,1.86-5.2
		c0.47-2.08,0.71-4.1,0.71-6.05c0-2.02-0.25-4.06-0.76-6.13c-0.5-2.06-1.18-3.83-2.03-5.31c-1.62-2.79-3.6-4.18-5.95-4.18
		c-2.23,0-4.16,1.47-5.77,4.4C164.1,35.2,163.28,38.79,163.28,43.03z"/>
	<path class="st2" d="M196.61,34.48c0.83-1.15,1.61-2,2.36-2.56c1.51-1.08,3.32-1.63,5.43-1.63c2.99,0,5.59,1.08,7.81,3.24
		c2.75,2.65,4.13,6.39,4.13,11.23c0,4.83-1.32,8.65-3.96,11.43c-2.28,2.43-5.21,3.64-8.78,3.64c-1.87,0-3.46-0.29-4.76-0.87
		l-1.66-0.77c-0.45-0.2-0.86-0.3-1.21-0.3c-1,0-1.89,0.94-2.66,2.82h-1.2V21.34c0-2.51-0.35-4.3-1.05-5.39
		c-0.7-1.09-1.88-1.63-3.54-1.63v-0.78l9.08-1.41V34.48z M196.61,44.62c0,2.39,0.12,4.58,0.35,6.59c0.23,2.01,0.54,3.47,0.91,4.38
		c0.45,1.09,1.12,1.95,2.01,2.58c0.89,0.62,1.9,0.94,3.04,0.94c2.39,0,4.36-1.29,5.92-3.88c1.56-2.59,2.33-5.88,2.33-9.87
		c0-2.1-0.25-4.09-0.76-5.97c-0.51-1.88-1.23-3.48-2.17-4.8c-0.74-1.09-1.57-1.92-2.47-2.49c-0.9-0.57-1.82-0.85-2.76-0.85
		c-1.14,0-2.19,0.4-3.17,1.19c-0.98,0.79-1.7,1.82-2.17,3.1C196.96,37.39,196.61,40.43,196.61,44.62z"/>
	<path class="st2" d="M222.08,31.5l8.56-1.2V49.6l0.03,2.54c0,1.51,0.08,2.62,0.24,3.32c0.16,0.7,0.46,1.29,0.92,1.75
		c0.55,0.6,1.57,1.06,3.05,1.37v0.68h-13.1v-0.68c1.18-0.18,2.03-0.43,2.54-0.75c0.51-0.32,0.93-0.87,1.24-1.65
		c0.22-0.51,0.37-1.28,0.46-2.32c0.09-1.03,0.13-2.53,0.13-4.49v-8.25c0-2.29-0.05-3.9-0.15-4.82c-0.1-0.92-0.32-1.67-0.65-2.25
		c-0.34-0.62-0.74-1.07-1.22-1.35c-0.47-0.28-1.16-0.45-2.05-0.52V31.5z M228.27,18.24c-0.78,0-1.42-0.28-1.93-0.84
		s-0.76-1.26-0.76-2.11c0-0.83,0.26-1.52,0.78-2.09c0.52-0.57,1.15-0.85,1.91-0.85c0.76,0,1.39,0.29,1.91,0.85
		c0.52,0.57,0.78,1.27,0.78,2.09c0,0.85-0.25,1.55-0.76,2.11C229.69,17.96,229.05,18.24,228.27,18.24z"/>
	<path class="st2" d="M238.71,13.33l8.56-1.2v37.43l0.03,2.55c0,1.52,0.08,2.63,0.24,3.34c0.16,0.7,0.46,1.29,0.92,1.76
		c0.55,0.6,1.57,1.06,3.05,1.38v0.68h-13.1v-0.68c1.18-0.18,2.03-0.43,2.55-0.75c0.51-0.32,0.93-0.88,1.24-1.66
		c0.22-0.51,0.37-1.29,0.46-2.33c0.09-1.04,0.13-2.54,0.13-4.51V23.02c0-2.28-0.05-3.89-0.15-4.83s-0.32-1.7-0.65-2.28
		c-0.34-0.63-0.74-1.07-1.22-1.34c-0.47-0.27-1.16-0.44-2.05-0.5V13.33z"/>
	<path class="st3" d="M260.45,39.73c-0.07,1.17-0.1,2.01-0.1,2.54c0,2.07,0.25,4.1,0.75,6.07c0.5,1.98,1.18,3.62,2.05,4.93
		c0.88,1.33,1.98,2.38,3.28,3.14c1.3,0.76,2.67,1.14,4.1,1.14c1.06,0,2.06-0.22,3.01-0.65c0.95-0.43,1.74-1.03,2.37-1.8
		c0.71-0.84,1.31-2.19,1.82-4.04l0.63,0.25c-0.51,2.8-1.61,4.91-3.3,6.34c-1.68,1.42-3.93,2.14-6.72,2.14
		c-2.42,0-4.51-0.46-6.24-1.39c-1.74-0.92-3.2-2.35-4.4-4.27c-1.68-2.68-2.51-5.98-2.51-9.9c0-5.34,1.59-9.53,4.76-12.57
		c2.31-2.21,4.94-3.31,7.9-3.31c1.58,0,3.04,0.34,4.38,1.01c1.34,0.67,2.47,1.65,3.4,2.93c1.44,1.99,2.16,4.47,2.16,7.45H260.45z
		 M273.35,38.34c-0.14-2.36-0.5-4.18-1.09-5.46c-0.53-1.16-1.24-2.07-2.12-2.75c-0.88-0.67-1.83-1.01-2.83-1.01
		c-1.69,0-3.16,0.87-4.43,2.62c-1.27,1.75-2.02,3.95-2.25,6.6H273.35z"/>
	<path d="M32.56,55.85h7.49v3.75H17.54v-3.75h7.48V13.19c0,0-12.5-0.03-12.5,16.29h-2.5V10.76h37.6v18.72h-2.55
		c0,0-0.6-16.31-12.5-16.31V55.85z"/>
</g>
</svg>
