<?xml version="1.0" encoding="utf-8"?>
<!-- Generator: Adobe Illustrator 25.4.1, SVG Export Plug-In . SVG Version: 6.00 Build 0)  -->
<svg version="1.1" id="Layer_1" xmlns="http://www.w3.org/2000/svg" xmlns:xlink="http://www.w3.org/1999/xlink" x="0px" y="0px"
	 viewBox="0 0 146.39 150.88" style="enable-background:new 0 0 146.39 150.88;" xml:space="preserve">
<style type="text/css">
	.st0{fill:#FFFFFF;}
</style>
<path class="st0" d="M23.04,130.97C23.04,130.97,23.04,130.97,23.04,130.97c-4.97,8.97-8.34,15.94-10.18,19.91c0,0,0,0,0,0h60.33h0
	c40.42,0,73.19-32.77,73.19-73.19v-4.49V2.51c0,0,0,0,0,0c-5.06,2.91-13.95,8.28-24.7,15.89c0,0,0,0,0,0 M121.69,18.39
	C121.69,18.39,121.69,18.39,121.69,18.39c-16.87,11.94-38.33,29.37-56.74,51.45c-19.31,23.15-33.12,45.27-41.91,61.12c0,0,0,0,0,0"
	/>
<path class="st0" d="M78.72,0H67.67C30.3,0,0,30.3,0,67.67v15.54v32.67c1.05-2.38,2.48-5.27,4.4-8.66
	c5.49-9.71,15.01-23.53,31.48-41.36c20.47-22.17,54.7-41.95,80.02-54.72c9.44-4.77,17.64-8.56,23.43-11.13H78.72z"/>
</svg>
